<?xml version="1.0" encoding="utf-8"?>
<!-- Generator: Adobe Illustrator 16.0.5, SVG Export Plug-In . SVG Version: 6.00 Build 0)  -->
<!DOCTYPE svg PUBLIC "-//W3C//DTD SVG 1.1//EN" "http://www.w3.org/Graphics/SVG/1.1/DTD/svg11.dtd">
<svg version="1.1" id="Layer_1" focusable="false" xmlns="http://www.w3.org/2000/svg" xmlns:xlink="http://www.w3.org/1999/xlink"
	 x="0px" y="0px" width="2383.939px" height="1683.781px" viewBox="0 0 2383.939 1683.781"
	 enable-background="new 0 0 2383.939 1683.781" xml:space="preserve">
<path fill="#5586FF" d="M1297.206,447.255V0H639.479c-43.739,0-78.928,35.188-78.928,78.928v1525.926
	c0,43.738,35.188,78.928,78.928,78.928h1104.98c43.738,0,78.928-35.189,78.928-78.928V526.181h-447.254
	C1332.724,526.181,1297.206,490.664,1297.206,447.255z M1507.679,1223.372c0,21.705-17.759,39.464-39.464,39.464h-552.49
	c-21.705,0-39.464-17.759-39.464-39.464v-26.31c0-21.704,17.759-39.463,39.464-39.463h552.49c21.705,0,39.464,17.759,39.464,39.463
	V1223.372z M1507.679,1012.899c0,21.705-17.759,39.464-39.464,39.464h-552.49c-21.705,0-39.464-17.759-39.464-39.464v-26.309
	c0-21.705,17.759-39.464,39.464-39.464h552.49c21.705,0,39.464,17.759,39.464,39.464V1012.899z M1507.679,776.118v26.309
	c0,21.705-17.759,39.464-39.464,39.464h-552.49c-21.705,0-39.464-17.759-39.464-39.464v-26.309
	c0-21.705,17.759-39.464,39.464-39.464h552.49C1489.92,736.654,1507.679,754.413,1507.679,776.118z M1823.388,400.885v20.061
	h-420.945V0h20.061c21.047,0,41.107,8.222,55.906,23.021l321.958,322.286C1815.166,360.105,1823.388,380.166,1823.388,400.885z"/>
</svg>
