<?xml version="1.0" encoding="utf-8"?>
<!-- Generator: Adobe Illustrator 23.0.3, SVG Export Plug-In . SVG Version: 6.00 Build 0)  -->
<svg version="1.1" id="레이어_1" focusable="false"
	 xmlns="http://www.w3.org/2000/svg" xmlns:xlink="http://www.w3.org/1999/xlink" x="0px" y="0px" viewBox="0 0 512 512"
	 style="enable-background:new 0 0 512 512;" xml:space="preserve">
<style type="text/css">
	.st0{fill:#5586FF;}
</style>
<path class="st0" d="M455.9,405.8l-80-80c-3.6-3.6-8.5-5.6-13.6-5.6h-13.1c22.2-28.3,35.3-64,35.3-102.7c0-92.2-74.7-167-167-167
	s-167,74.7-167,167s74.7,167,167,167c38.8,0,74.4-13.2,102.7-35.3v13.1c0,5.1,2,10,5.6,13.6l80,80c7.5,7.5,19.7,7.5,27.2,0
	l22.7-22.7C463.4,425.6,463.4,413.4,455.9,405.8z M217.5,320.2c-56.8,0-102.7-45.9-102.7-102.7c0-56.8,45.9-102.7,102.7-102.7
	c56.8,0,102.7,45.9,102.7,102.7C320.2,274.2,274.3,320.2,217.5,320.2z"/>
</svg>
