<?xml version="1.0" encoding="utf-8"?>
<!-- Generator: Adobe Illustrator 16.0.5, SVG Export Plug-In . SVG Version: 6.00 Build 0)  -->
<!DOCTYPE svg PUBLIC "-//W3C//DTD SVG 1.1//EN" "http://www.w3.org/Graphics/SVG/1.1/DTD/svg11.dtd">
<svg version="1.1" id="Layer_1" focusable="false" xmlns="http://www.w3.org/2000/svg" xmlns:xlink="http://www.w3.org/1999/xlink"
	 x="0px" y="0px" width="2383.939px" height="1683.781px" viewBox="0 0 2383.939 1683.781"
	 enable-background="new 0 0 2383.939 1683.781" xml:space="preserve">
<path fill="#5586FF" d="M2147.317,1227.647c8.551-46.37,8.551-93.727,0-140.096l84.848-49.001
	c9.865-5.591,14.141-17.101,10.852-27.953c-22.033-71.035-59.854-135.492-109.183-188.768c-7.563-8.222-19.731-10.195-29.598-4.604
	l-84.847,49.001c-35.846-30.584-76.954-54.263-121.351-70.048v-98.001c0-11.182-7.893-21.048-18.745-23.35
	c-73.336-16.443-147.988-15.785-217.707,0c-10.854,2.302-18.746,12.168-18.746,23.35v98.001
	c-44.396,15.785-85.504,39.464-121.351,70.048l-84.847-49.001c-9.537-5.591-22.033-3.617-29.598,4.604
	c-49.329,53.275-87.148,117.732-109.183,188.768c-3.288,10.853,1.315,22.362,10.853,27.953l84.847,49.001
	c-8.55,46.369-8.55,93.726,0,140.096l-84.847,49.001c-9.865,5.59-14.141,17.101-10.853,27.953
	c22.034,71.034,59.854,135.162,109.183,188.768c7.564,8.222,19.732,10.194,29.598,4.604l84.847-49
	c35.847,30.584,76.954,54.262,121.351,70.048v98.001c0,11.182,7.893,21.047,18.746,23.35c73.336,16.442,147.988,15.785,217.707,0
	c10.853-2.303,18.745-12.168,18.745-23.35v-98.001c44.396-15.786,85.505-39.464,121.351-70.048l84.847,49
	c9.537,5.591,22.034,3.618,29.598-4.604c49.329-53.276,87.149-117.733,109.183-188.768c3.289-10.853-1.315-22.363-10.852-27.953
	L2147.317,1227.647z M1770.769,1317.097c-88.135,0-159.498-71.691-159.498-159.498S1682.963,998.1,1770.769,998.1
	c87.807,0,159.5,71.692,159.5,159.499S1858.904,1317.097,1770.769,1317.097z M876.261,841.89
	c232.507,0,420.945-188.438,420.945-420.945C1297.206,188.439,1108.768,0,876.261,0C643.755,0,455.315,188.439,455.315,420.945
	C455.315,653.452,643.755,841.89,876.261,841.89z M1537.935,1586.765c-7.564-3.946-15.129-8.55-22.363-12.825l-25.98,15.128
	c-19.731,11.182-42.094,17.43-64.457,17.43c-35.846,0-70.377-15.128-95.041-41.438c-60.182-65.114-106.223-144.37-132.203-228.889
	c-18.088-58.209,6.248-119.706,58.866-150.29l25.98-15.128c-0.329-8.551-0.329-17.101,0-25.651l-25.98-15.128
	c-52.618-30.255-76.954-92.082-58.866-150.29c2.959-9.537,7.234-19.074,10.523-28.611c-12.497-0.986-24.665-3.946-37.49-3.946
	h-54.92c-73.008,33.544-154.237,52.618-239.742,52.618c-85.504,0-166.404-19.074-239.741-52.618H581.6
	c-244.017,0-441.993,197.976-441.993,441.992v136.808c0,87.148,70.706,157.854,157.854,157.854h1157.599
	c33.215,0,64.128-10.524,89.45-27.954c-3.945-12.497-6.576-25.322-6.576-38.806V1586.765z"/>
</svg>
